<mxfile host="app.diagrams.net" modified="2023-12-07T09:26:28.029Z" agent="Mozilla/5.0 (Windows NT 10.0; Win64; x64) AppleWebKit/537.36 (KHTML, like Gecko) Chrome/109.0.0.0 Safari/537.36" version="22.1.7" etag="ifhRpdXyddeRP5lkftAj" type="github">
  <diagram name="第 1 页" id="8ad2CBzuucdJZ7vBzMSo">
    <mxGraphModel>
      <root>
        <mxCell id="0" />
        <mxCell id="1" parent="0" />
      </root>
    </mxGraphModel>
  </diagram>
</mxfile>
